<svg id="Layer_1" data-name="Layer 1" xmlns="http://www.w3.org/2000/svg" viewBox="0 0 70 70"><defs><style>.cls-1{fill:#97feb1;}</style></defs><title>adobe-Ai</title><g id="Adobe-Illustrator-icon"><g id="icon"><g id="border"><path class="cls-1" d="M65.13,4.89V64.48H5.54V4.89H65.13m2.38-2.38H3.16V66.86H67.51V2.51Z"/></g><path class="cls-1" d="M26.18,39.72l-2.47,7.05c0,.24-.16.32-.41.32H19.17c-.28,0-.36-.12-.28-.4,2.19-6.2,5.87-16.53,8.47-23.54a8.36,8.36,0,0,0,.32-2.23.24.24,0,0,1,.24-.25h5.6c.2,0,.24,0,.32.21,3,8.3,6.28,17.46,9.36,25.85q.12.36-.24.36H38.42a.36.36,0,0,1-.37-.24l-2.59-7.13Zm8.19-4c-.81-2.72-2.8-8.19-3.61-11h0c-.61,2.67-2.27,7.25-3.48,11Z"/><path class="cls-1" d="M45.1,22.21a2.55,2.55,0,0,1,2.76-2.51,2.43,2.43,0,0,1,2.67,2.51,2.46,2.46,0,0,1-2.71,2.52A2.47,2.47,0,0,1,45.1,22.21Zm.28,5.52c0-.25.09-.33.29-.33H50c.25,0,.33,0,.33.33v19c0,.2-.08.32-.33.32H45.75c-.24,0-.37-.08-.37-.36Z"/></g></g></svg>