<svg id="Layer_1" data-name="Layer 1" xmlns="http://www.w3.org/2000/svg" viewBox="0 0 64.35 64.35"><defs><style>.cls-1{fill:#97feb1;}</style></defs><title>adobe-Id</title><g id="Adobe-InDesign-icon"><g id="icon"><g id="border"><path class="cls-1" d="M64.79,4.71V64.29H5.21V4.71H64.79m2.39-2.39H2.83V66.68H67.18V2.32Z" transform="translate(-2.83 -2.32)"/></g><path class="cls-1" d="M27.06,46.54c0,.25-.08.37-.36.37H22.48c-.24,0-.32-.12-.32-.37V20.77c0-.24.12-.28.32-.28h4.26c.24,0,.32,0,.32.28Z" transform="translate(-2.83 -2.32)"/><path class="cls-1" d="M29.86,38c0-5.4,4.33-9.62,11.22-9.62a8.75,8.75,0,0,1,2.31.26V20.75c0-.19.08-.26.24-.26h4.42c.16,0,.2.07.2.22v22c0,.78.08,1.79.12,2.38,0,.19,0,.26-.2.38a20.22,20.22,0,0,1-8.1,1.82C34.11,47.28,29.86,44.26,29.86,38Zm13.53-5.81A7.12,7.12,0,0,0,41,31.89c-3.65,0-6.12,2.12-6.12,5.92,0,4.22,2.67,5.89,5.75,5.89a10.07,10.07,0,0,0,2.76-.37Z" transform="translate(-2.83 -2.32)"/></g></g></svg>