<svg id="Layer_1" data-name="Layer 1" xmlns="http://www.w3.org/2000/svg" viewBox="0 0 70 70"><defs><style>.cls-1{fill:#97feb1;}</style></defs><title>adobe-Ps</title><g id="Adobe-Photoshop-icon"><g id="icon"><g id="border"><path class="cls-1" d="M64.79,4.71V64.29H5.21V4.71H64.79m2.39-2.38H2.82V66.68H67.18V2.33Z"/></g><path class="cls-1" d="M19.77,20.22c0-.21,0-.29.24-.29,1.54,0,4.58-.08,7.66-.08,7.94,0,10.7,4.09,10.73,8.79,0,6.45-5.3,9.24-11.26,9.24H24.63V46c0,.24-.08.32-.29.32H20.05c-.2,0-.28-.08-.28-.28ZM24.63,34a23.84,23.84,0,0,0,2.63.08c3.2,0,6.28-1.25,6.28-5.31,0-3.24-2.06-5-5.87-5-1.58,0-2.72,0-3,.08Z"/><path class="cls-1" d="M46.3,30c-2,0-2.51.93-2.51,1.7,0,1,.53,1.5,3.57,2.72,4.17,1.7,6,3.2,6,6.12,0,4-3.12,6.24-7.57,6.24a12.6,12.6,0,0,1-6.28-1.58.42.42,0,0,1-.25-.41V41c0-.2.17-.28.29-.2A12.76,12.76,0,0,0,46.06,43c1.87,0,2.51-.93,2.51-1.82,0-1.06-.73-1.67-3.64-2.84-4.18-1.7-5.63-3.28-5.63-6.24,0-3.28,2.63-5.88,7.41-5.88a10.77,10.77,0,0,1,5.35,1.18.56.56,0,0,1,.24.53v3.32c0,.24-.16.36-.36.24A12.11,12.11,0,0,0,46.3,30Z"/></g></g></svg>