<svg id="Layer_1" data-name="Layer 1" xmlns="http://www.w3.org/2000/svg" viewBox="0 0 1920 500"><defs><style>.cls-1{fill:#fecaca;stroke:#000;stroke-miterlimit:10;}.cls-2{fill:#d9fde2;}</style></defs><title>illustration-02</title><rect class="cls-1" x="-86" y="-133" width="2058" height="765.4"/><path class="cls-2" d="M435.81,60.89c0,10.68.47,24.86.57,33a6.54,6.54,0,0,0,6.9,6.43l7.75-.47a6.54,6.54,0,0,1,6.15,9.64l-18.25,34a6.63,6.63,0,0,0,5,9.65l21.94,3a6.44,6.44,0,0,1,5.39,8.32,293.18,293.18,0,0,1-26.76,65.62,6.6,6.6,0,0,0,3.69,9.55l13.05,4.25a6.58,6.58,0,0,1,2.36,11.16L457.18,261c-6.24,5.67,1.89,15.51,8.6,9.93,8.51-7,16.64-14.18,24.59-21.65h0c5.1-5,10.21-9.93,15.22-15a6.68,6.68,0,0,0-.85-9.92c-.48-.29-1-.57-1.61-.86h-.19a6.65,6.65,0,0,1-4-8.6l30.73-80.08a6.63,6.63,0,0,0-5-8.89l-19.29-3.5a6.65,6.65,0,0,1-5.39-7.47c2.36-16.35,8.23-30.53,15.51-45.19a6.65,6.65,0,0,0-5-9.55c-16.82-2.46-42-9.08-48.88-10.78-10.68-2.74-22.12-13.42-25.34-2.93C435.81,48,435.72,53.7,435.81,60.89Z"/><path class="cls-2" d="M367.83,154.58a6,6,0,0,0,5.11,6.15l4.35.57a6,6,0,0,1,5.1,6.71L377,205.17a6,6,0,0,0,5.58,6.9l7.57.47a5.92,5.92,0,0,1,5.38,7.28l-12,50.59a5.92,5.92,0,0,0,5.86,7.28H392a6,6,0,0,1,5,9.36l-.29.47c-4.06,5.86,3.79,12.76,9.08,7.75l13.62-12.86,14-13.33a5.88,5.88,0,0,0-4-10.21h-.29a6,6,0,0,1-5.57-7.94c7.28-21.46,15.78-46.9,23.06-68.55a6,6,0,0,0-5.57-7.94L421.82,174a6,6,0,0,1-5.39-8c4.82-13.14,12.39-33.19,4.54-41.41-3.78-4-33.19-4.35-46-4.35a5.88,5.88,0,0,0-6,5.67L368.59,136Z"/><path class="cls-2" d="M365.37,55.69l.57,3.5,4.26,25.62a6.7,6.7,0,0,0,8.5,5.29,116.58,116.58,0,0,1,28.65-5.39c2.74-.19,5.58-.28,8.32-.28a6.36,6.36,0,0,0,4.64-1.8,7.66,7.66,0,0,0,2.17-4.25A146,146,0,0,0,423,58.81c-.75-9.84-3.68-19-11.25-21.75-7.28-2.74-17.68,1.14-24.3,4.07C383.81,42.36,364.62,51.43,365.37,55.69Z"/><path class="cls-2" d="M1277.67,154.58a6,6,0,0,0,5.1,6.15l4.35.57a6,6,0,0,1,5.11,6.71l-5.39,37.16a6,6,0,0,0,5.58,6.9l7.56.47a5.93,5.93,0,0,1,5.39,7.28l-12,50.59a5.92,5.92,0,0,0,5.86,7.28h2.65a6,6,0,0,1,5,9.36l-.28.47c-4.07,5.86,3.78,12.76,9.07,7.75l13.62-12.86,14-13.33a5.88,5.88,0,0,0-4-10.21H1339a6,6,0,0,1-5.58-7.94c7.28-21.46,15.79-46.9,23.07-68.55a6,6,0,0,0-5.58-7.94l-19.29-.47a6,6,0,0,1-5.39-8c4.83-13.14,12.39-33.19,4.54-41.41-3.78-4-33.18-4.35-46-4.35a5.87,5.87,0,0,0-5.95,5.67l-.48,10.12Z"/><path class="cls-2" d="M1275.21,55.69l.56,3.5L1280,84.81a6.71,6.71,0,0,0,8.51,5.29,116.41,116.41,0,0,1,28.65-5.39c2.74-.19,5.57-.28,8.32-.28a6.35,6.35,0,0,0,4.63-1.8,7.66,7.66,0,0,0,2.17-4.25,144.24,144.24,0,0,0,.48-19.57c-.76-9.84-3.69-19-11.25-21.75-7.28-2.74-17.68,1.14-24.3,4.07C1293.55,42.36,1274.45,51.43,1275.21,55.69Z"/><path class="cls-2" d="M519.58,265.3a213,213,0,0,0,28.93-22.12h0a208,208,0,0,0,27.8-30.45,8.23,8.23,0,0,0-4.54-12.86l-16.83-4.54,29.22-51.62h0l6-10.49L599.76,116,617,85.56,603.82,81.5l-5.67-1.8L593,78.09l-1.89-.56a8.1,8.1,0,0,1-5.1-10.78L589,59.28a8.2,8.2,0,0,0-5.67-11c-14.75-3.5-38.48-7.18-37.92-3.78s-.47,6.71-1.42,9.93c-.56,1.61-1,3.4-1.6,5-4.07,13.14-8.23,26.19-12.29,39.14a8.17,8.17,0,0,0,5.86,10.4l11.72,2.74a8.16,8.16,0,0,1,5.67,11l-32.9,84a7.19,7.19,0,0,0-.57,3,8.08,8.08,0,0,0,5,7.46,8.3,8.3,0,0,1,3.4,12.39q-8.94,12.06-19,23.26C502.85,259.91,511.54,270.31,519.58,265.3Z"/><path class="cls-2" d="M624.43,114.87c-8.32,13-21.74,23-28.83,36.69-7.76,15.22-6.24,34.23,3.5,49.26s27.89,25.62,46.61,27.23c21.37,1.79,42-7.76,56-21.75,13.9-14.18,22.12-32.43,27.61-51.05,5.39-17.87,8.79-37,4.25-55.6-1.6-6.71-4.35-13.61-9.55-18.72s-13.14-8.51-20.32-6.9c-12.39,2.74-15.6,16.83-16.83,28.55-.76,7.76-1.42,15.32-2.37,23.07-.75,7.47-1.6,15.22-6,21.37s-13.71,9.83-21.09,6.15c-8.79-4.26-9.93-15.6-6.24-23.74s10.5-14.37,14.18-22.4c4.83-10.5,3.5-23.55-3.68-33.66-6.91-9.84-25.91-23.83-29.69-6.72-1.61,6.91,1.79,15.79,1,23.07A55.75,55.75,0,0,1,624.43,114.87Z"/><path class="cls-2" d="M818.07,131a7.39,7.39,0,0,0,4.25-2.37c7.95-8.88-.75-20.42-10.21-20.61-7.47-.19-14.37,5.58-16.92,12.58s-1.42,15,1.42,21.93C806,164.42,833.2,178.13,834.05,202c.56,18.16-15.51,32.91-32.72,38.48s-35.64,4.26-53.79,5.58c-10.12.76-20.62,2.65-30,6.62a6.6,6.6,0,0,1-8.6-8.79l31.3-69.5a3.1,3.1,0,0,1,5.86.86c1,7.75,5,14.75,13.61,18.81a12.24,12.24,0,0,0,9.84.28c12.57-5.1,11.25-17.11,5.95-25.15C772,163.76,767,159.5,763,154.68c-13.9-16.64-16.83-41.79-7-61.08,9.83-19.48,31.77-32,53.33-30.73,20.8,1.14,40.93,16.27,44.62,36.69,3.5,20.42-13.71,43.11-34.51,41.79-7.56-.48-15.6-4.54-18-11.82-1.8-5.58,1.13-12.29,6.71-12.1h0C805,122.34,804.26,133,818.07,131Z"/><path class="cls-2" d="M851.63,144.37c-5,4.07-10.78,7.57-14.18,13.15s-3.21,14,2.46,17.2c5.29-5.95,15.6-4.25,21.08,1.61,5.39,5.67,7.28,14,8.51,21.75,2.74,18.43,4.07,38.19,15.22,53,11.26,15,32.15,22.41,50.3,16.64a29.47,29.47,0,0,0,11.82-6.9c12.1-12,7.57-29.12,2.74-43.87l-7.94-24.59a9.89,9.89,0,0,0-8.22-6.9c-7.76-.85-9.55,8.23-14.94,12.39-6.43,5.1-17.21.47-19.76-7.28s1.89-16.64,8.6-21.37c8.79-6.15,21.46-7,27.52-16,4.53-6.71,2.64-16.92-3.79-21.75-7.28-5.38-13.9.57-23.54,5-1.61.75-15.79,4.06-16-5.39-.19-13.33-6.71-30.73-13.9-41.51-5.1,4.54-4.53,22.22-7.47,29.22A60.59,60.59,0,0,1,851.63,144.37Z"/><path class="cls-2" d="M1167.14,72.14c-6.15,4.06-13.05,7.28-17.59,13.14s-5.29,15.51.85,19.76c6.62-6.14,18.16-2.93,23.74,4.07s6.61,16.64,7,25.62c1,21.08.29,43.59,11.16,61.55,11.16,18.44,34.23,29.22,55.69,24.39a32.1,32.1,0,0,0,12.76-5.86c15.6-12,12.39-32.33,8.79-49.54l-6.14-28.65a11.13,11.13,0,0,0-8.6-8.79c-8.51-1.61-14.47,5.67-18,12.29-11.25,20.89-19.48-1.42-21.37-10.5s4.07-18.53,12.29-23.07c11.16-6.14,26.48-5.39,33.76-16.26A18.21,18.21,0,0,0,1259,67.22c-7.75-7.56-16-1.42-27.51,2.46-1.89.57-18.25,2.74-17.21-7.94.76-7.57-.47-16.64-2.65-25.44s-14.75-8.88-17.11,0a47.15,47.15,0,0,1-3,9.37A77,77,0,0,1,1167.14,72.14Z"/><path class="cls-2" d="M1154.75,81.4c-1-8-2.36-16.54-7.18-23.07-6.72-9.07-18.82-12-29.69-10.49-12,1.61-20.42,8.79-29.69,16-6,4.82-13.42,7.94-19,13.33-5.86,5.67-12.58,16.07-9.65,24.58,3.79,11.25,16.83,8.61,24.11,2.65,5.58-4.54,10.21-10.5,16.64-13.43,6.62-3,16.27-1.32,18.16,5.58s-4.64,12.86-10.5,16.93c-15.31,10.77-30.82,22.4-40.94,38.29s-13.71,37.16-4.25,53.32a39.2,39.2,0,0,0,56.44,12.48,12.66,12.66,0,0,1,16.83,1.89,3.19,3.19,0,0,1,.48.57,12.64,12.64,0,0,0,22.12-7.56A704.65,704.65,0,0,0,1154.75,81.4Zm-36.68,85.66a22.17,22.17,0,0,1-11.82,14.47c-4.25,2.08-9.93,2.46-13.33-.85a9.62,9.62,0,0,1-2.18-9.08c.76-3.21,2.65-5.95,4.64-8.51,3.21-3.78,11.72-13.14,17.58-12.29C1119.49,152,1119.39,161.77,1118.07,167.06Z"/><path class="cls-2" d="M982.49,245.26c2.74,4,5.86,8,10.21,9.92,5.58,2.37,12,.85,17.68-.75,13.33-3.5,26.47-7.19,39.8-10.69,5.39-1.42,12.29-5,11-10.49-1-4.07-6-5.58-10.12-6.62a94.4,94.4,0,0,1-51.62-33.94c-5.86-7.57-10.68-16.55-11.44-26.19s3.22-20.05,11.54-25,20.8-2.46,25,6.14c1.89,3.78,2.08,8,3.4,12s4.25,7.94,8.51,8.23c5.39.28,8.89-5.68,10.4-11,4.07-13.9,4.63-29.12-.85-42.55S1028.34,90,1014.16,87.83,984,93.51,979.08,107.12c-2.08,5.67-2.36,12-5,17.4-2.17,4.35-7.47,8.51-12.57,7.28-3.69-.76-5.86-7.19-9.17-5.39-5.68,2.93-1,32.15-.57,37A187.21,187.21,0,0,0,982.49,245.26Z"/><path class="cls-2" d="M1416.84,36c-4.07-6.43-8.79-12.67-16.07-16.83a34.55,34.55,0,0,0-27.14-2.83c-14.65,4.72-21.56,18.34-24.77,30.16-8.23,30.06-7.66,135.29,54.74,128.11C1468.27,167.06,1430.45,57.29,1416.84,36Zm-14,30.92a106.38,106.38,0,0,1,2.27,28,23.62,23.62,0,0,1-2.18,9c-5.86,12.67-14.37,5.86-14.37,5.86-12.29-9.83-19.38-23.54-20-38.29-.29-8,3.68-18.63,14.08-20.9C1394.24,48.12,1401,58.24,1402.85,66.94Z"/><path class="cls-2" d="M1553.84,199.31a10.72,10.72,0,0,1-5.58-1.71c-5.2-3.12-32.9-10.4-35.26-18.91-1.42-4.91,5.1-11.91,7.28-16a75.22,75.22,0,0,0,7.56-19.77,41.41,41.41,0,0,0-2.36-24.86,28.56,28.56,0,0,0-8.42-10.87,21.83,21.83,0,0,0-5.67-3.12c-10.21-3.79-23.45-.38-27.52,9.83-.37.85-.56,1.8-.85,2.65-2.45,18.43,3.12,37.91,15.7,51.52,2.36,2.56,5.1,5.11,6.52,8.32s1,7.66-1.89,9.74c-2.46,1.71-5.86,1.23-8.89.57-18-3.69-35.92-7.28-53.89-11,3.78.76,11.73-36.49,12.29-40.27a151,151,0,0,0,.19-42.83,101.51,101.51,0,0,0-4.82-21.75c-5.29-14.94,12.57-15.22,16.83-11a25.85,25.85,0,0,0,6.33,4.73,2.72,2.72,0,0,0,3.12-.57h0c11.16-12.38,28.84-19.38,44.82-16.64h.19A35.81,35.81,0,0,1,1532,52.09a5.59,5.59,0,0,1,.76.48c9.92,6.24,16.45,16.83,20,28,3.68,11.44,4.53,23.55,5.38,35.55,1.52,22.22,3.12,44.54,4.54,66.85C1563.48,190.13,1562.44,199.4,1553.84,199.31Z"/></svg>